<svg width="14" height="10" viewBox="0 0 14 10" fill="none" xmlns="http://www.w3.org/2000/svg">
<path fill-rule="evenodd" clip-rule="evenodd" d="M14 4.99967C14 4.72352 13.7761 4.49967 13.5 4.49967H1.70698L4.85398 1.35367C4.98045 1.22719 5.02984 1.04286 4.98355 0.870093C4.93726 0.697329 4.80232 0.562385 4.62955 0.516093C4.45679 0.469801 4.27245 0.519194 4.14598 0.645666L0.145978 4.64567C0.0519366 4.73947 -0.000915527 4.86684 -0.000915527 4.99967C-0.000915527 5.13249 0.0519366 5.25986 0.145978 5.35367L4.14598 9.35367C4.27245 9.48014 4.45679 9.52953 4.62955 9.48324C4.80232 9.43695 4.93726 9.302 4.98355 9.12924C5.02984 8.95648 4.98045 8.77214 4.85398 8.64567L1.70698 5.49967H13.5C13.7761 5.49967 14 5.27581 14 4.99967Z" fill="white"/>
</svg>
